<svg viewBox="0 0 100 100" fill="none" xmlns="http://www.w3.org/2000/svg">
    <!-- Nuraghe base -->
    <path d="M35 80 L42 45 H58 L65 80 Z" stroke="#c8a76b" stroke-width="5" stroke-linejoin="round" fill="#07090e"/>
    <line x1="39.5" y1="57" x2="60.5" y2="57" stroke="#c8a76b" stroke-width="4"/>
    <line x1="37" y1="68" x2="63" y2="68" stroke="#c8a76b" stroke-width="4"/>
    <path d="M48 80 V72 H52 V80 Z" fill="#c8a76b"/>
    <!-- Neural tree -->
    <circle cx="50" cy="25" r="5" fill="#c8a76b"/>
    <circle cx="35" cy="18" r="4" fill="#c8a76b"/>
    <circle cx="65" cy="18" r="4" fill="#c8a76b"/>
    <circle cx="30" cy="30" r="4" fill="#c8a76b"/>
    <circle cx="70" cy="30" r="4" fill="#c8a76b"/>
    <circle cx="50" cy="45" r="4" fill="#c8a76b"/>
    <line x1="50" y1="45" x2="50" y2="25" stroke="#c8a76b" stroke-width="2" stroke-dasharray="2 1"/>
    <line x1="50" y1="25" x2="35" y2="18" stroke="#c8a76b" stroke-width="2"/>
    <line x1="50" y1="25" x2="65" y2="18" stroke="#c8a76b" stroke-width="2"/>
    <line x1="50" y1="25" x2="30" y2="30" stroke="#c8a76b" stroke-width="2"/>
    <line x1="50" y1="25" x2="70" y2="30" stroke="#c8a76b" stroke-width="2"/>
    <line x1="25" y1="80" x2="75" y2="80" stroke="#c8a76b" stroke-width="3"/>
</svg>
